<svg xmlns="http://www.w3.org/2000/svg" width="753" height="459" viewBox="0 0 753 459">
  <defs>
    <style>
      .cls-1 {
        fill: #fff;
        fill-rule: evenodd;
      }

      .cls-2 {
        fill: none;
        stroke: #fff;
        stroke-width: 31.97px;
      }
    </style>
  </defs>
  <path id="thomas" class="cls-1" d="M79.447,119.5V56.143H58.4V119.5H79.447ZM25,20.42V41.467H58.4v0H79.447v0h34.807V20.42H25Zm170.9,0.167V56.3H150.3V20.587H129.249V119.5H150.3V77.353h45.6V119.5h21.047V20.587H195.9Zm85.624,0.163A49.375,49.375,0,1,0,330.9,70.125,49.431,49.431,0,0,0,281.522,20.75Zm28.766,49.375a28.766,28.766,0,1,1-28.766-28.766A28.8,28.8,0,0,1,310.288,70.125ZM346,119.5h21.047V85.98L346,64.973V119.5Zm84.641-99.8L390.931,59.4,371.252,39.717,351.231,19.7H346V44.234l21.047,21.047L376.764,75l14.163,14.163,2.789-2.784,3.849-3.846,1.158-1.158,4.3-4.3,11.164-11.164V119.5h21.047V19.7h-4.6Zm23,93.946L450.4,119.5h26.4l1.127-2.035,21.455-38.771-13.242-23.77Zm108.228,0L519.891,37.81,511.27,22.239l-0.978-2.179h-5.056l-1.012,2.188L495.607,37.81l-1.056,1.912-0.044.079,13.242,23.77,0.386,0.7,9.682,17.487,19.758,35.71L538.7,119.5h26.4ZM638.942,59.41H610.488a9,9,0,0,1,0-18h32.94a8.093,8.093,0,0,1,5.463,7.647H669.5a28.662,28.662,0,0,0-28.69-28.694H610.488a30.045,30.045,0,0,0,0,60.09h28.454a9,9,0,1,1,0,18H606.516a8.092,8.092,0,0,1-5.464-7.647H580.443A28.666,28.666,0,0,0,609.134,119.5h29.808a30.045,30.045,0,1,0,0-60.09h0Z"/>
  <path id="oxy" class="cls-1" d="M246.54,211.973a78.185,78.185,0,1,0,78.184,78.184,78.274,78.274,0,0,0-78.184-78.184h0Zm45.55,78.184a45.551,45.551,0,1,1-45.55-45.55A45.6,45.6,0,0,1,292.09,290.157Zm63.866,68.229-7.332,9.956h41.4l1.868-2.541,22.663-30.78-20.719-28.072Zm146.082,0L449.692,287.3l48.582-65.975,7.333-9.957h-41.39l-1.874,2.541L429,259.193l-33.349-45.285-1.874-2.541H352.394l7.332,9.95L408.3,287.3l-0.048.07,20.719,28.065,0.02,0.021,0.021-.028,15.935,21.643,21.157,28.724,1.875,2.548H509.37ZM648.4,211.006l-1.875,2.555-35.1,47.965-35.1-47.965-1.875-2.555H533.17l7.269,9.936,51.416,70.28,1.555,2.132,0.063,0.083,0.062,0.077,0.007,0.014,1.236,1.687v73.127h33.328V295.166l1.2-1.638,0.007-.014,0.062-.077,0.063-.083,1.555-2.125L682.4,220.942l7.269-9.936H648.4Z"/>
  <rect id="Rounded_Rectangle_1" data-name="Rounded Rectangle 1" class="cls-2" x="129" y="140" width="600" height="300" rx="20" ry="20"/>
</svg>
