<svg xmlns="http://www.w3.org/2000/svg" width="981" height="234" viewBox="0 0 981 234">
  <defs>
    <style>
      .cls-1 {
        fill: #fff;
        fill-rule: evenodd;
      }

      .cls-2 {
        fill: none;
        stroke: #fff;
        stroke-width: 21.06px;
      }
    </style>
  </defs>
  <path id="Thomas" class="cls-1" d="M51.624,159V106.2H34.084V159h17.54ZM6.25,76.43V93.97H34.084v0h17.54v0H80.631V76.43H6.25Zm142.418,0.139v29.766h-38V76.569H93.124V159h17.54V123.876h38V159h17.54V76.569h-17.54ZM220.021,76.7a41.148,41.148,0,1,0,41.147,41.147A41.194,41.194,0,0,0,220.021,76.7Zm23.972,41.147A23.973,23.973,0,1,1,220.021,93.88,24,24,0,0,1,243.993,117.852ZM273.746,159h17.54V131.066l-17.54-17.507V159Zm70.537-83.172-33.089,33.088-16.4-16.4L278.109,75.827h-4.363V96.276l17.54,17.541,8.1,8.1,11.8,11.8,2.324-2.321,3.208-3.2,0.965-.964,3.585-3.581,9.3-9.3V159h17.541V75.827h-3.834Zm19.163,78.291-2.7,4.882h22l0.939-1.7,17.88-32.31-11.036-19.81Zm90.194,0-34.979-63.2-7.184-12.976-0.815-1.816h-4.213l-0.844,1.823-7.181,12.969-0.88,1.593-0.037.066,11.036,19.81,0.322,0.581,8.068,14.573L433.4,157.3l0.939,1.7h22Zm64.23-45.195H494.158a7.5,7.5,0,0,1,0-15h27.451a6.745,6.745,0,0,1,4.553,6.373h17.175a23.889,23.889,0,0,0-23.91-23.913H494.158a25.039,25.039,0,0,0,0,50.077H517.87a7.5,7.5,0,1,1,0,15H490.848a6.745,6.745,0,0,1-4.554-6.373H469.12A23.884,23.884,0,0,0,493.029,159H517.87A25.039,25.039,0,1,0,517.87,108.923Z"/>
  <rect id="Rounded_Rectangle_1" data-name="Rounded Rectangle 1" class="cls-2" x="567" y="20" width="400" height="200" rx="20" ry="20"/>
  <path id="OXY" class="cls-1" d="M649.74,70.519a50.241,50.241,0,1,0,50.24,50.24A50.3,50.3,0,0,0,649.74,70.519Zm29.27,50.24a29.271,29.271,0,1,1-29.27-29.27A29.3,29.3,0,0,1,679.01,120.759ZM720.049,164.6l-4.711,6.4h26.6l1.2-1.633L757.7,149.588,744.388,131.55Zm93.87,0-33.636-45.679,31.218-42.4,4.712-6.4h-26.6l-1.2,1.633-21.425,29.1-21.43-29.1-1.205-1.633H717.761l4.711,6.394,31.214,42.4-0.031.044L766.969,137l0.013,0.013L767,137,777.235,150.9l13.6,18.459,1.2,1.637h26.6Zm94.048-94.7-1.205,1.642-22.554,30.822L861.654,71.539,860.449,69.9H833.924l4.672,6.385,33.039,45.162,1,1.369,0.04,0.054,0.041,0.049,0,0.009,0.794,1.084V171h21.416V123.978l0.768-1.053,0-.009,0.041-.049,0.04-.054,1-1.365L929.82,76.282l4.672-6.385H907.967Z"/>
</svg>
